<svg xmlns="http://www.w3.org/2000/svg" viewBox="0 0 28.34 49.72"><title>ico_btn_Mic</title><g id="btn_i"><g id="arrow"><path d="M22.35,49.72H6a1.5,1.5,0,1,1,0-3H22.35a1.5,1.5,0,1,1,0,3Z"/><path d="M14.17,49.72a1.5,1.5,0,0,1-1.5-1.5V35.9a1.5,1.5,0,0,1,3,0V48.22A1.5,1.5,0,0,1,14.17,49.72Z"/><rect x="5.99" width="16.37" height="30.53" rx="8.1" ry="8.1"/><path d="M14.25,36.51h-.16A14.09,14.09,0,0,1,0,22.42a1.5,1.5,0,1,1,3,0A11.08,11.08,0,0,0,14.09,33.5h.16A11.08,11.08,0,0,0,25.33,22.42a1.5,1.5,0,0,1,3,0A14.09,14.09,0,0,1,14.25,36.51Z"/></g></g></svg>