<svg xmlns="http://www.w3.org/2000/svg" viewBox="0 0 344 196.37"><defs><style>.cls-1{fill:#ff1d25;}</style></defs><title>Logo_VoiceMaze</title><g id="logo"><path d="M41.68,21.07l8.68,29.85A148.93,148.93,0,0,1,54,66.57h.39c1.05-5.26,2.1-10.13,3.55-15.65l8.28-29.85h21L63.38,85.38h-20L20,21.07Z"/><path d="M158.08,53.16c0,24.07-18.41,33.67-34.46,33.67-18.28,0-32.75-12.49-32.75-33.54,0-21.7,15.39-33.67,34.33-33.67C144.53,19.62,158.08,32.38,158.08,53.16Zm-46.56.26c0,10.26,4.08,19.07,13,19.07s12.89-8.68,12.89-19.07c0-9.21-3-19.6-12.89-19.6S111.52,44.35,111.52,53.42Z"/><path d="M190.57,21.52V85.83h-20V21.52Z"/><path d="M254.76,83.8c-3.55,1.58-10.26,3-17.89,3-20.78,0-34.06-12.76-34.06-33,0-18.81,12.89-34.19,36.82-34.19a46.37,46.37,0,0,1,15.26,2.5L251.73,37a27.36,27.36,0,0,0-11.18-2c-10.52,0-17.36,7.5-17.23,18,0,11.84,7.89,18,17.62,18a28.2,28.2,0,0,0,11.44-2.1Z"/><path d="M279.75,59.6c.66,8.29,8.81,12.23,18.15,12.23a56.63,56.63,0,0,0,17.75-2.63l2.63,13.55A63.42,63.42,0,0,1,295,86.83c-21.83,0-34.33-12.76-34.33-32.88,0-16.31,10.13-34.33,32.48-34.33,20.78,0,28.67,16.18,28.67,32.09a47.51,47.51,0,0,1-.66,7.89Zm23.54-13.68c0-4.87-2.1-13-11.31-13-8.42,0-11.84,7.63-12.36,13Z"/><path d="M101.78,146.38c-.33-8.91-.66-19.7-.66-30.48h-.33c-2.31,9.46-5.5,20.25-8.25,28.83l-9,28.83H70.31L62.5,145c-2.42-8.8-5-19.37-6.71-29h-.22c-.44,10-.77,21.46-1.32,30.7l-1.32,28.17H37.41l4.73-74.17H64.47l7.26,24.76c2.42,8.47,4.62,18.16,6.27,26.85h.33c2.09-8.58,4.51-18.71,7-27l7.92-24.65h21.9l4.07,74.17h-16.4Z"/><path d="M140.32,157.78l-4.72,17H120.08l20.24-66.23H160l20.54,66.23H164.4l-5.11-17Zm16.8-11.2L153,132.52c-1.18-3.93-2.36-8.84-3.34-12.77h-.2c-1,3.93-2,8.94-3,12.77l-3.93,14.05Z"/><path d="M199.9,165.75l35.32-50.84v-.44h-32V100.61H257v9.68l-34.55,50.18v.44h35.1v13.86H199.9Z"/><path d="M312.23,143.41H284.94V161h30.48v13.75H268.11V100.61h45.78v13.76H284.94v15.41h27.29Z"/><path class="cls-1" d="M166.2,103.69c0-7.47,5.69-13.51,14.58-13.51,8.53,0,14.22,6,14,13.51.18,7.82-5.51,13.69-14.22,13.69S166.38,111.52,166.2,103.69Z"/><polygon points="341.84 195.13 319.76 195.13 319.76 189.21 335.91 189.21 335.91 7.16 84.67 7.16 84.67 1.24 341.84 1.24 341.84 195.13"/><polygon points="253.41 195.13 2.16 195.13 2.16 1.24 26.94 1.24 26.94 7.16 8.09 7.16 8.09 189.21 253.41 189.21 253.41 195.13"/></g></svg>