<svg xmlns="http://www.w3.org/2000/svg" viewBox="0 0 106.21 61.43"><defs><style>.cls-1{fill:#ed1e79;}</style></defs><title>SmallLogo</title><g id="logo"><path d="M11.25,6.33,14,15.77a47.09,47.09,0,0,1,1.16,4.95h.12c.33-1.66.67-3.2,1.12-4.95L19,6.33h6.65L18.11,26.67H11.79L4.39,6.33Z"/><path d="M48,16.48c0,7.61-5.82,10.64-10.89,10.64-5.78,0-10.35-4-10.35-10.6,0-6.86,4.86-10.64,10.85-10.64S48,9.91,48,16.48Zm-14.72.08c0,3.24,1.29,6,4.12,6s4.07-2.74,4.07-6c0-2.91-1-6.2-4.07-6.2S33.33,13.69,33.33,16.56Z"/><path d="M51.79,32.47A3.17,3.17,0,0,1,55.2,29.3a3.18,3.18,0,1,1,0,6.36A3.17,3.17,0,0,1,51.79,32.47Zm6.53-26V26.81H52V6.48Z"/><path d="M78.62,26.17a15.27,15.27,0,0,1-5.65,1c-6.57,0-10.77-4-10.77-10.44,0-5.95,4.07-10.81,11.64-10.81a14.66,14.66,0,0,1,4.82.79l-1,4.7a8.65,8.65,0,0,0-3.53-.62,5.26,5.26,0,0,0-5.45,5.7,5.29,5.29,0,0,0,5.57,5.7,8.92,8.92,0,0,0,3.62-.67Z"/><path d="M86.52,18.52c.21,2.62,2.79,3.87,5.74,3.87a17.91,17.91,0,0,0,5.61-.83l.83,4.28a20.05,20.05,0,0,1-7.36,1.29c-6.9,0-10.85-4-10.85-10.4,0-5.16,3.2-10.85,10.27-10.85,6.57,0,9.06,5.11,9.06,10.15a15,15,0,0,1-.21,2.49ZM94,14.19c0-1.54-.67-4.12-3.58-4.12-2.66,0-3.74,2.41-3.91,4.12Z"/><path d="M30.25,46c-.1-2.82-.21-6.23-.21-9.64h-.1c-.73,3-1.74,6.4-2.61,9.12l-2.85,9.11H20.3l-2.47-9c-.77-2.78-1.57-6.12-2.12-9.18h-.07c-.14,3.17-.24,6.78-.42,9.71l-.42,8.91H9.9l1.5-23.45h7.06l2.3,7.83c.77,2.68,1.46,5.74,2,8.49h.1c.66-2.71,1.43-5.91,2.23-8.52l2.5-7.79h6.92l1.29,23.45H30.6Z"/><path d="M42.44,49.56l-1.49,5.37H36L42.44,34h6.21l6.49,20.94H50l-1.62-5.37ZM47.75,46l-1.3-4.44c-.37-1.24-.75-2.8-1.06-4h-.06c-.31,1.24-.62,2.83-1,4L43.12,46Z"/><path d="M61.27,52.08,72.44,36v-.14H62.31V31.48h17v3.06L68.4,50.41v.14H79.5v4.38H61.27Z"/><path d="M96.79,45H88.16v5.57H97.8v4.35h-15V31.48H97.31v4.35H88.16V40.7h8.63Z"/><path class="cls-1" d="M50.62,32.46a4.29,4.29,0,0,1,4.61-4.27,4.3,4.3,0,1,1-.06,8.6A4.28,4.28,0,0,1,50.62,32.46Z"/><polygon points="106.21 61.43 99.17 61.43 99.17 59.43 104.21 59.43 104.21 2 24.84 2 24.84 0 106.21 0 106.21 61.43"/><polygon points="79.5 61.43 0 61.43 0 0 7.9 0 7.9 2 2 2 2 59.43 79.5 59.43 79.5 61.43"/></g></svg>